HIERARCHY
ROOT Hips
{
  OFFSET 2.26061 22.2878 23.7974
  CHANNELS 6 Xposition Yposition Zposition Zrotation Xrotation Yrotation
  JOINT LeftUpLeg
  {
    OFFSET 8.64259 1.95398 -2.38835
    CHANNELS 3 Zrotation Xrotation Yrotation
    JOINT LeftLeg
    {
      OFFSET 43.7702 0 0
      CHANNELS 3 Zrotation Xrotation Yrotation
      JOINT LeftFoot
      {
        OFFSET 40.6238 0 0
        CHANNELS 3 Zrotation Xrotation Yrotation
        JOINT LeftToeBase
        {
          OFFSET 12.7242 0 0
          CHANNELS 3 Zrotation Xrotation Yrotation
          End Site
          {
            OFFSET 0 0 0
          }
        }
      }
    }
  }
  JOINT RightUpLeg
  {
    OFFSET -8.2249 1.95398 -2.59336
    CHANNELS 3 Zrotation Xrotation Yrotation
    JOINT RightLeg
    {
      OFFSET 43.5653 0 0
      CHANNELS 3 Zrotation Xrotation Yrotation
      JOINT RightFoot
      {
        OFFSET 40.6238 0 0
        CHANNELS 3 Zrotation Xrotation Yrotation
        JOINT RightToeBase
        {
          OFFSET 12.7242 0 0
          CHANNELS 3 Zrotation Xrotation Yrotation
          End Site
          {
            OFFSET 0 0 0
          }
        }
      }
    }
  }
  JOINT Spine
  {
    OFFSET 0.165834 0.87714 6.61349
    CHANNELS 3 Zrotation Xrotation Yrotation
    JOINT Spine1
    {
      OFFSET 7.38963 1.71661e-005 0
      CHANNELS 3 Zrotation Xrotation Yrotation
      JOINT Spine2
      {
        OFFSET 11.9445 1.14441e-005 0
        CHANNELS 3 Zrotation Xrotation Yrotation
        JOINT Spine3
        {
          OFFSET 14.7254 4.19617e-005 0
          CHANNELS 3 Zrotation Xrotation Yrotation
          JOINT Spine4
          {
            OFFSET 10.9679 0 0
            CHANNELS 3 Zrotation Xrotation Yrotation
            JOINT RightShoulder
            {
              OFFSET 2.46616 -1.6653 3.69651
              CHANNELS 3 Zrotation Xrotation Yrotation
              JOINT RightArm
              {
                OFFSET 13.0012 0 0
                CHANNELS 3 Zrotation Xrotation Yrotation
                JOINT RightForeArm
                {
                  OFFSET 28.7848 1.52588e-005 0
                  CHANNELS 3 Zrotation Xrotation Yrotation
                  JOINT RightHand
                  {
                    OFFSET 26.5688 1.52588e-005 0
                    CHANNELS 3 Zrotation Xrotation Yrotation
                    End Site
                    {
                      OFFSET 0 0 0
                    }
                  }
                }
              }
            }
            JOINT LeftShoulder
            {
              OFFSET 2.38034 -1.29275 -3.7523
              CHANNELS 3 Zrotation Xrotation Yrotation
              JOINT LeftArm
              {
                OFFSET 16.3182 6.10351e-005 0
                CHANNELS 3 Zrotation Xrotation Yrotation
                JOINT LeftForeArm
                {
                  OFFSET 27.0901 0 0
                  CHANNELS 3 Zrotation Xrotation Yrotation
                  JOINT LeftHand
                  {
                    OFFSET 24.5451 1.52588e-005 0
                    CHANNELS 3 Zrotation Xrotation Yrotation
                    End Site
                    {
                      OFFSET 0 0 0
                    }
                  }
                }
              }
            }
            JOINT Neck
            {
              OFFSET 5.0226 -0.0266342 0
              CHANNELS 3 Zrotation Xrotation Yrotation
              JOINT Head
              {
                OFFSET 6.69363 2.86102e-005 0
                CHANNELS 3 Zrotation Xrotation Yrotation
                End Site
                {
                  OFFSET 0 0 0
                }
              }
            }
          }
        }
      }
    }
  }
}
MOTION
Frames:	10
Frame Time:	0.0416667
-55.6278 97.3704 30.2541 2.11748 -89.6383 1.41948 -171.736 5.73634 91.1821 -8.706 5.21651 -0.306738 59.6826 1.08233 3.47452 29.2092 0.437813 -1.05182 173.34 4.52908 89.0414 -11.2204 -4.43578 -2.22265 64.2246 -2.20395 -1.16863 29.1043 0.25157 -3.82277 -0.0643194 7.02311 -90.1152 12.8274 -0.182828 -0.208391 1.1565 -0.191819 -0.200148 -21.3786 -0.111751 -0.253701 -1.36592 -0.111744 -0.253703 92.5861 -52.9855 -96.3135 22.6024 -7.2217 0.243364 -3.75443 -25.6548 -39.7012 -5.76597 -0.949381 7.00823 -105.522 -54.4308 58.0003 -16.2885 17.1054 0.154063 0.890548 13.1396 -30.256 12.5628 1.25398 5.86047 2.01617 1.39981 7.80758 -4.22363 0.366921 1.18977 
-55.6011 97.4356 30.2949 -5.98856 -89.6906 -6.73298 -171.621 5.70893 91.1928 -8.65724 4.40852 -0.426445 59.2178 0.615873 3.22669 29.8209 1.02577 -2.40413 173.039 4.91678 88.9309 -11.8952 -3.57393 -1.85934 63.8702 -2.05974 -1.08688 29.9788 0.202764 -2.66864 -0.0553669 7.03657 -90.1258 12.8005 -0.170114 -0.23119 1.12956 -0.180122 -0.223494 -21.4055 -0.0927686 -0.271628 -1.39282 -0.0927724 -0.271645 92.6243 -52.6135 -96.3213 22.8022 -7.17215 0.183827 -3.18475 -26.1369 -39.0401 -6.80737 -1.03289 6.97319 -105.718 -54.3993 57.7216 -16.478 16.9466 0.0669529 0.980995 13.1597 -30.1293 12.0695 1.17306 5.57948 2.95829 2.73219 7.13297 -2.73493 1.72881 1.29632 
-55.5742 97.4181 30.3505 -17.7418 -89.6506 -18.542 -171.659 5.84068 91.1244 -8.96586 4.30561 -0.416735 59.2986 0.589973 3.35119 29.8409 1.06836 -2.73698 173.001 4.81154 88.8539 -11.7342 -3.8294 -1.88396 64.1679 -2.21156 -1.17718 29.4996 0.193111 -2.71342 -0.0413017 7.03117 -90.1084 12.8114 -0.133834 -0.200592 1.14047 -0.142527 -0.194515 -21.3946 -0.067362 -0.231542 -1.38194 -0.0673609 -0.231546 92.6028 -52.6639 -96.3447 22.8595 -7.16897 0.311001 -3.38531 -25.9064 -39.1619 -6.73744 -1.02437 6.94374 -105.608 -54.2157 57.7946 -16.3637 17.1463 -0.148145 0.739371 13.1215 -29.8844 12.2576 1.17788 5.4853 3.68193 2.44096 7.21506 -2.98685 1.37552 0.782378 
-55.5355 97.3998 30.406 -21.0927 -89.6126 -21.8413 -171.528 5.75319 91.1918 -8.89681 3.9514 -0.515477 59.5681 0.763461 2.55647 29.7674 0.930683 -1.75858 172.989 4.74703 88.8653 -11.6119 -3.8666 -1.86692 64.3107 -2.2574 -1.20274 29.2046 0.184724 -2.69621 -0.0401229 7.01866 -90.1188 12.8364 -0.136517 -0.22113 1.16545 -0.146119 -0.214909 -21.3696 -0.0637538 -0.251935 -1.35693 -0.063757 -0.25194 92.6935 -52.7006 -96.203 22.7029 -7.27754 0.248843 -3.13652 -25.8036 -39.1162 -7.03651 -1.04315 6.89839 -105.675 -54.2916 57.7353 -16.0908 17.383 -0.179473 0.485392 12.873 -29.9003 12.46 1.19506 5.48351 3.75557 2.46034 7.30542 -2.85564 1.37512 0.56631 
-55.5273 97.4023 30.4621 -19.6912 -89.5953 -20.4134 -171.432 5.91665 91.245 -9.21566 4.44918 -0.625336 59.8684 1.00467 3.33805 29.1538 0.485459 -2.02033 172.914 4.83333 88.8388 -11.8596 -4.16762 -1.79607 64.262 -2.27572 -1.21433 29.6451 0.235732 -3.3859 -0.045662 6.99913 -90.1246 12.8754 -0.150344 -0.231074 1.20444 -0.160367 -0.224242 -21.3306 -0.0739509 -0.265573 -1.31792 -0.0739509 -0.265584 92.7525 -52.6827 -96.1183 22.8259 -7.2792 0.338993 -3.39345 -25.8658 -39.2696 -6.75013 -1.03363 7.07348 -105.773 -54.3875 57.6414 -16.0466 17.3824 -0.171474 0.425248 12.8965 -29.7984 12.6971 1.24102 5.67145 3.68915 2.53244 7.09409 -3.01307 1.48436 0.970514 
-55.4703 97.3837 30.5166 -2.34751 -89.5924 -2.95408 -171.424 5.99834 91.3264 -9.34895 4.42007 -0.589643 59.8454 0.867018 3.04434 29.6304 0.852441 -2.06564 173.014 4.80306 88.9467 -11.8346 -3.76432 -1.82022 64.4731 -2.40888 -1.29604 29.3642 0.193463 -2.7675 -0.054492 7.00132 -90.1509 12.8709 -0.180457 -0.279912 1.19999 -0.192596 -0.271706 -21.335 -0.0879943 -0.321202 -1.32231 -0.0879834 -0.321201 92.6718 -52.5682 -96.2583 22.8494 -7.25964 0.373165 -3.29155 -25.6967 -39.244 -6.98463 -1.03184 6.80181 -106.151 -54.6729 57.2487 -15.6713 17.3491 -0.184559 0.602503 13.0793 -29.9542 12.3152 1.18481 5.50155 3.90376 2.60712 7.60271 -3.28504 1.46517 0.6042 
-55.4327 97.3769 30.5288 26.118 -89.5608 25.5954 -171.401 6.0221 91.3528 -9.42717 4.34117 -0.581073 60.2037 1.16767 2.98888 29.1558 0.498183 -2.14139 173.005 4.79583 88.9922 -11.9336 -3.61486 -1.77776 64.4299 -2.39301 -1.28676 29.5388 0.197556 -2.76544 -0.0764281 7.01703 -90.1595 12.8394 -0.228113 -0.291415 1.16848 -0.240718 -0.281098 -21.3665 -0.129986 -0.3465 -1.35383 -0.129983 -0.346498 92.5156 -52.5608 -96.4933 22.8094 -7.23448 0.295513 -3.19605 -25.9155 -39.1902 -7.19702 -1.05838 6.91516 -106.205 -54.6074 57.1484 -15.7341 17.3344 -0.226277 0.700231 13.2156 -29.9758 12.4784 1.19344 5.45803 3.72218 2.54259 7.3993 -3.12565 1.4464 0.874399 
-55.4109 97.3832 30.634 21.6386 -89.5466 21.055 -171.423 5.98663 91.3235 -9.39833 4.34223 -0.581297 59.9748 0.950166 3.06499 29.5816 0.857694 -2.55315 173.038 4.77419 88.9526 -11.9298 -3.58885 -1.85328 64.4115 -2.39841 -1.29052 29.6234 0.194347 -2.6679 -0.0782474 7.03024 -90.141 12.8131 -0.222818 -0.255133 1.14215 -0.23384 -0.245094 -21.3929 -0.135844 -0.310305 -1.38023 -0.135847 -0.310311 92.6505 -52.4738 -96.3068 22.9563 -7.38912 0.0977862 -3.50034 -26.3102 -39.1848 -7.52099 -1.07384 6.70195 -105.958 -54.516 57.4434 -15.7739 17.4258 -0.389747 0.548147 13.0635 -29.9233 12.7167 1.18989 5.27553 3.14346 2.45013 7.24574 -2.95728 1.41636 0.94475 
-55.3903 97.3808 30.723 6.16562 -89.5331 5.54368 -171.434 5.89254 91.2299 -9.31984 4.26158 -0.59015 60.2338 1.19592 3.24427 29.0627 0.439547 -2.26977 173.04 4.78578 88.9157 -12.0419 -4.00402 -1.90949 64.5799 -2.48008 -1.33523 29.6176 0.214141 -3.01706 -0.0749624 7.04652 -90.125 12.7806 -0.20861 -0.22495 1.10963 -0.218304 -0.215553 -21.4254 -0.131358 -0.277239 -1.41278 -0.131361 -0.277248 92.5481 -52.5626 -96.4443 22.8018 -7.47663 0.0165104 -3.42724 -26.1765 -39.1676 -7.29982 -1.0567 6.71848 -106.035 -54.5667 57.3602 -15.8192 17.4086 -0.290062 0.477819 12.8053 -30.0358 12.8682 1.21509 5.36563 1.81457 2.31553 7.58239 -3.2004 1.32137 0.427861 
-55.4191 97.3865 30.6902 -1.69943 -89.5667 -2.30181 -171.436 6.02942 91.2793 -9.51065 4.46121 -0.575031 59.705 0.811695 3.69942 29.9929 1.20188 -2.97534 173.126 4.99226 88.9764 -12.3802 -3.83689 -1.95247 64.2919 -2.37382 -1.27555 30.1605 0.204274 -2.58849 -0.0714764 7.09835 -90.1233 12.677 -0.200821 -0.22267 1.00601 -0.210428 -0.21362 -21.5291 -0.124614 -0.272728 -1.51641 -0.124615 -0.27273 92.6074 -52.7449 -96.3238 22.455 -7.46178 -0.274288 -3.03941 -25.8924 -39.273 -7.55041 -1.05198 6.45334 -106.537 -54.7118 56.7428 -15.4255 17.5685 -0.3064 0.364896 12.7192 -30.1468 13.012 1.23304 5.40583 -0.0330725 2.3771 6.89882 -5.83106 1.55815 1.70137 
